Patient4_TMGait_0pt5_02_left_25_EMG.mot
version=1
nRows=26
nColumns=33
inDegrees=no
endheader
time	1LAddLong	2LGlutMax	3LGlutMed	4LIliopsoas	5LSemiMemb	6LBicFemLong	7LRecFem	8LVastMed	9LVastLat	10LGasMed	11LTibAnt	12lTibPost	13LPeroneusLong	14LSol	15LExtDigLong	16LFlexDigLong	17RAddLong	18RGlutMax	19RGlutMed	20RIliopsoas	21RSemiMemb	22RBicFemLong	23RRecFem	24RVastMed	25RVastLat	26RGasMed	27RTibAnt	28RTibPost	29RPeroneusLong	30RSol	31RExtDigLong	32RFlexDigLong
32.795	0.011749	-0.021667	-0.30365	-0.003204	-0.007629	0.10834	-0.18845	0.013123	-0.060425	-0.11673	-0.002747	0.038452	0.042877	0.16968	-0.00412	0.046234	0.031128	-0.032654	0.11597	-0.02533	0.13534	0.044861	-0.005798	-0.18463	0.30792	0.008545	0.010681	0.00351	0.44128	-0.061035	-0.01709	0.00061
32.796	0.013885	-0.017548	-0.28732	-0.015259	0.025635	0.020447	-0.17731	0.010681	-0.040131	-0.052948	0.005341	-0.002747	0.01709	0.15488	-0.010834	0.000458	0.016632	-0.069733	0.21057	0.041504	0.051117	0.11063	-0.011597	-0.24139	0.30731	-0.001984	-0.016022	-0.000305	0.37964	0.027618	-0.005951	0.003967
32.797	0.017853	-0.012054	-0.31677	-0.000305	0.011902	0.03952	-0.20844	0.001221	-0.002289	-0.031738	0.00473	0.001678	0.018921	-0.047913	-0.016327	-0.37613	-0.004883	-0.092773	0.006409	0.059204	0.014801	0.1149	-0.14297	-0.26016	0.24689	-0.008392	-0.005035	-0.001373	0.14084	0.063934	-0.014954	0.000458
32.798	0.014496	-0.046539	-0.30731	0.000153	-0.033569	0.005035	-0.21255	-0.007477	-0.019684	-0.021362	0.005798	0.015717	-0.053558	-0.38498	-0.024719	0.039978	0.008087	-0.10391	-0.071564	0.007629	0.098267	0.070953	-0.14221	-0.25101	0.20813	-0.003815	0.013733	-0.002594	0.067749	0.033417	-0.015411	-0.004272
32.799	0.020447	-0.040131	-0.289	0.005188	-0.031738	-0.081787	-0.168	0.006866	-0.009308	-0.037994	0.004425	-0.014954	-0.078888	-0.43671	0.007324	0.003357	-0.006256	0.006866	-0.023804	-0.060883	0.10605	0.054779	-0.18677	-0.16708	0.12268	-0.002899	0.002441	-0.000153	0.18982	0.066376	-0.018768	0.00351
32.8	0.023193	-0.039825	-0.28519	-0.002747	-0.016937	-0.076904	-0.17044	0.006104	-0.028992	-0.009308	0.006256	-0.024872	-0.098267	-0.29572	0.008698	-0.06073	-0.004578	-0.036926	-0.1062	-0.037079	0.10513	0.027618	-0.12482	-0.18753	-0.032196	0.000305	-0.007935	0.000305	0.28564	-0.007324	-0.021362	-0.002899
32.801	0.016327	-0.010681	-0.24414	0.000305	-0.031891	-0.006866	-0.1712	0.001678	-0.029297	-0.022583	0.001221	-0.012512	-0.091705	-0.23102	0.006866	-0.068207	0.011292	-0.092773	0.090637	-0.016632	0.092621	0.020294	-0.028229	-0.24765	-0.19821	-0.007629	0.018158	0.000763	0.17716	-0.040588	-0.012665	-0.00824
32.802	0.018005	0.007477	-0.24124	0.008698	-0.04715	0.061035	-0.1561	0.005646	-0.018921	-0.015564	0.00351	-0.003052	-0.036469	-0.076141	0.005035	-0.068054	0.00885	-0.1294	0.27237	-0.023499	0.096283	0.042114	0.001526	-0.09903	-0.16373	-0.010376	0.15076	0.001526	0.18188	-0.06134	-0.010071	0.001831
32.803	0.016327	-0.046844	-0.21118	0.003052	0.001831	-0.13534	-0.16251	-0.009766	-0.001526	-0.002594	-0.000305	-0.078735	-0.007935	0.0383	0.005493	-0.066223	0.020905	-0.15076	0.006866	-0.062714	0.085907	0.049744	0.060425	-0.11292	-0.086975	-0.010071	0.27908	0.000763	0.069275	-0.049286	-0.014648	-0.00824
32.804	0.020599	-0.010986	-0.22507	-0.011749	0.038757	-0.14236	-0.16388	-0.000305	-0.00351	0.028381	0.008698	0.24902	-0.054626	0.05127	0.006409	-0.036469	0.022125	-0.16022	-0.14175	-0.18417	0.077515	0.074615	0.078583	-0.11124	-0.046539	0	0.22354	0.001373	-0.1619	-0.060883	-0.011139	-0.00885
32.805	0.023651	-0.032196	-0.1973	0.007324	0.048676	-0.066681	-0.16556	0.000763	-0.01709	0.003815	0.003357	-0.17548	0.001373	0.16937	0.011139	-0.02121	0.027313	-0.14481	-0.35645	-0.18478	0.071716	0.074463	0.073547	0.089111	0.008545	0.002136	0.018005	0.002136	0.085907	-0.053406	-0.011902	-0.005493
32.806	0.020599	-0.028381	-0.17792	0.009766	0.037079	-0.027161	-0.17502	-0.00061	-0.041046	0.002289	0.00061	-0.064697	0.089874	0.20737	0.013275	-0.037537	0.036469	-0.14343	-0.40436	-0.14358	0.052032	0.024872	0.04364	0.25559	0.022125	-0.001984	-0.075073	0.001373	-0.10971	-0.017395	-0.014648	-0.003815
32.807	0.012054	-0.049133	-0.14999	0.014648	-0.004272	-0.015564	-0.17868	-0.00351	-0.050812	0.016785	0.002136	0.041199	0.098724	0.10437	-0.003052	-0.11124	0.055695	-0.14999	-0.40085	-0.10025	0.13641	-0.01236	-0.016785	0.30838	0.043793	-0.006409	-0.28503	0.001373	0.30823	-0.02594	-0.010986	-0.012512
32.808	0.010834	-0.050659	-0.13168	0.003815	0.00473	-0.035706	-0.19608	0.000763	-0.059052	0.034027	-0.004578	0.039825	0.058136	0.020447	0.003204	-0.0383	0.081482	-0.081635	-0.41168	0.13123	0.1564	-0.068207	-0.093536	0.32837	0.065765	0.001221	-0.28915	0.001373	0.54977	-0.093689	-0.013123	-0.014801
32.809	0.011444	-0.029907	-0.11139	0.00061	0.022125	-0.057983	-0.15442	0.001526	-0.053864	-0.003815	-0.001373	0.019989	0.041962	0.004578	0.006409	0.015869	0.10635	-0.070343	-0.53711	0.30945	0.11841	-0.089417	-0.093842	0.26154	0.018311	-0.003357	-0.2211	-0.001678	-0.74692	-0.088501	-0.011902	-0.008087
32.81	0.010834	-0.029449	-0.12848	0.013275	0.010681	-0.067444	-0.13458	0.000763	-0.066528	-0.019836	0.006104	0.027008	0.032501	-0.018463	0.013275	0.13092	0.076752	-0.046234	-0.34988	0.25803	0.1149	-0.056458	-0.041809	0.41367	0.065765	-0.004425	-0.10208	0.000916	-0.80902	-0.039215	-0.009613	-0.002747
32.811	0.014191	-0.061798	-0.12039	0.011902	0.005035	-0.036621	-0.13306	0.007477	-0.061493	-0.053711	0.003815	0.10391	0.028076	-0.25696	-0.036316	0.070648	0.061035	-0.00412	-0.3389	0.19959	0.066223	-0.019531	-0.044708	0.30899	0.15152	-0.004425	-0.015259	0.000153	-0.009308	0.028992	-0.013275	-0.007935
32.812	0.013123	-0.045166	-0.093994	0.006561	-0.015717	0.006561	-0.18402	0.006714	-0.062408	-0.076447	-0.01297	0.029449	0.014954	-0.42893	-0.064545	0.014038	0.03952	-0.040283	0.006104	0.18951	0.03952	-0.038757	-0.020905	0.11643	0.10635	-0.008545	0.092163	-0.003204	-0.085602	0.033112	-0.010223	-0.011292
32.813	0.021057	-0.041656	-0.088959	-0.003662	-0.036774	0.079651	-0.22888	-0.007935	0.006561	-0.035706	-0.001678	-0.068054	0.021973	0.12116	-0.043335	0.021667	0.003967	-0.089874	0.42847	0.077362	0.04837	-0.018768	-0.003815	-0.011444	0.03479	-0.010223	0.003967	-0.002747	-0.16251	-0.016785	-0.00412	-0.008545
32.814	0.014496	-0.037384	-0.065155	-0.003662	-0.035095	0.11383	-0.21973	-0.003357	0.032349	0.00946	-0.003967	-0.025635	0.013733	0.19836	-0.01297	-0.016479	-0.014191	-0.10895	0.61035	-0.00473	0.008392	-0.020447	0.045624	0.020142	-0.029755	-0.006409	-0.093231	-0.001678	0.044556	-0.07309	-0.004883	-0.000305
32.815	0.013123	-0.014496	-0.079193	-0.009766	0.015564	0.033417	-0.2066	-0.00946	0.028687	0.045624	-0.001678	-0.039215	0.015411	0.018158	0.001526	-0.009155	-0.011902	-0.086517	0.62683	-0.053101	0.051575	0.002289	-0.008087	0.010986	-0.07309	-0.004578	-0.030975	-0.002289	0.083923	-0.098419	-0.00824	0.002747
32.816	0.017395	-0.00946	-0.1326	-0.013123	0.022583	0.043488	-0.19791	0.001678	0.002594	0.027313	0.001678	-0.016937	-0.007629	0.17807	0.00885	0.041199	-0.003052	-0.16861	0.032349	-0.077362	0.17914	-0.023193	0.00351	-0.068207	-0.05188	0.000153	0.087891	-0.0177	-0.012054	-0.098267	-0.007172	-0.002899
32.817	0.013428	-0.038452	-0.057068	0.000305	0.008545	0.077667	-0.23209	-0.013885	-0.014038	-0.014343	-0.010681	-0.006256	0.002747	0.097656	0.035095	0.10788	-0.000763	-0.21866	-0.25314	-0.063629	0.099182	-0.041046	-0.008545	-0.043945	0.020294	0.002747	0.34225	-0.022583	-0.16235	-0.020447	-0.002441	-0.004272
32.818	0.011444	-0.052185	0.000153	0.015564	-0.005188	-0.056763	-0.19272	-0.012207	0.011139	-0.009155	0.002289	-0.001678	-0.010376	0.027771	0.056152	0.081024	-0.024719	-0.23712	-0.31143	-0.023651	-0.019379	-0.02655	-0.035858	-0.050354	0.037231	-0.006714	0.23132	-0.019836	-0.032806	0.065918	-0.007782	-0.011749
32.819	0.017242	-0.056	-0.001984	0	0.000916	-0.04425	-0.19226	0.009613	0.015411	-0.00351	0.008545	0.00351	-0.008392	0.020142	0.019226	-0.16007	-0.032196	-0.1709	-0.21454	0.036011	-0.11169	0.063324	-0.057983	-0.035248	0.017548	-0.009918	0.040588	-0.01358	-0.1358	0.039063	-0.011139	-0.00885
32.82	0.009918	-0.033264	0.061951	0.017853	-0.006256	-0.084381	-0.18555	-0.000763	-0.005646	0.000916	-0.004578	0	0	0.005188	-0.013733	-0.26337	-0.019836	-0.17609	0.01709	0.03479	-0.12116	0.074615	-0.02594	-0.002289	0.027008	-0.006409	0.19577	-0.00885	-0.024414	-0.02594	-0.004272	-0.002594
